<?xml version="1.0" encoding="utf-8"?>
<!-- Generator: Adobe Illustrator 25.0.1, SVG Export Plug-In . SVG Version: 6.00 Build 0)  -->
<svg version="1.1" id="Layer_1" xmlns="http://www.w3.org/2000/svg" xmlns:xlink="http://www.w3.org/1999/xlink" x="0px" y="0px"
	 viewBox="0 0 50 50" style="enable-background:new 0 0 50 50;" xml:space="preserve">
<style type="text/css">
	.st0{fill:none;stroke:#3B82F6;stroke-width:4;stroke-linecap:round;stroke-linejoin:round;}
	.st1{fill:none;stroke:#3B82F6;stroke-width:4;}
</style>
<g>
	<path class="st0" d="M18.1,10.4V7.7c0-2.6,2.1-4.7,4.7-4.7h4.7c2.6,0,4.7,2.1,4.7,4.7v2.8"/>
	<g>
		<path class="st0" d="M41.9,28.5H28.7V34h-7.4v-5.6H8.1c-1.8,0-3.5-1.1-4.2-2.7V47H46V25.8C45.3,27.3,43.7,28.5,41.9,28.5z"/>
		<path class="st1" d="M4,10.4v15.3c0.8,1.5,2.3,2.7,4.2,2.7h13.2v-5.6h7.4v5.6h13.2c1.8,0,3.5-1.1,4.2-2.7V10.4H4z"/>
		<rect x="21.3" y="22.9" class="st0" width="7.4" height="11.1"/>
	</g>
</g>
</svg>
