<?xml version="1.0" encoding="utf-8"?>
<!-- Generator: Adobe Illustrator 25.0.1, SVG Export Plug-In . SVG Version: 6.00 Build 0)  -->
<svg version="1.1" id="Layer_1" xmlns="http://www.w3.org/2000/svg" xmlns:xlink="http://www.w3.org/1999/xlink" x="0px" y="0px"
	 viewBox="0 0 50 50" style="enable-background:new 0 0 50 50;" xml:space="preserve">
<style type="text/css">
	.st0{fill:none;stroke:#000000;stroke-width:4;stroke-linecap:round;stroke-linejoin:round;}
	.st1{fill:none;stroke:#000000;stroke-width:4;}
</style>
<g>
	<path class="st0" d="M18,10.3V7.6C18,5.1,20.1,3,22.6,3h4.6c2.5,0,4.6,2.1,4.6,4.6v2.7"/>
	<g>
		<path class="st0" d="M41.8,28.3H28.7v5.6h-7.4v-5.5H8.1c-1.8,0-3.5-1.1-4.2-2.6V47h42.1V25.7C45.2,27.2,43.6,28.3,41.8,28.3z"/>
		<path class="st1" d="M4,10.3v15.3c0.7,1.5,2.3,2.6,4.2,2.6h13.2v-5.5h7.4v5.5h13.2c1.8,0,3.5-1.1,4.2-2.6V10.3H4z"/>
		<rect x="21.2" y="22.8" class="st0" width="7.4" height="11.2"/>
	</g>
</g>
</svg>
