<?xml version="1.0" encoding="utf-8"?>
<!-- Generator: Adobe Illustrator 25.0.1, SVG Export Plug-In . SVG Version: 6.00 Build 0)  -->
<svg version="1.1" id="Layer_1" xmlns="http://www.w3.org/2000/svg" xmlns:xlink="http://www.w3.org/1999/xlink" x="0px" y="0px"
	 viewBox="0 0 50 50" style="enable-background:new 0 0 50 50;" xml:space="preserve">
<g>
	<path d="M46.9,5.1h-4.1v-2c0-1.1-0.9-2-2-2c-1.1,0-2,0.9-2,2v2h-6.4v-2c0-1.1-0.9-2-2-2c-1.1,0-2,0.9-2,2v2h-6.4v-2
		c0-1.1-0.9-2-2-2c-1.1,0-2,0.9-2,2v2h-6.4v-2c0-1.1-0.9-2-2-2c-1.1,0-2,0.9-2,2v2H3.1C2,5.1,1,6.1,1,7.3v39.4c0,1.2,1,2.1,2.1,2.1
		h43.7c1.2,0,2.1-1,2.1-2.1V7.3C49,6.1,48,5.1,46.9,5.1z M44.7,44.5H5.3V16.2h39.4V44.5z"/>
	<circle cx="14.3" cy="25.7" r="2.8"/>
	<circle cx="25" cy="25.7" r="2.8"/>
	<circle cx="35.7" cy="25.7" r="2.8"/>
	<circle cx="14.3" cy="35.8" r="2.8"/>
	<circle cx="25" cy="35.8" r="2.8"/>
	<circle cx="35.7" cy="35.8" r="2.8"/>
</g>
</svg>
