<?xml version="1.0" encoding="utf-8"?>
<!-- Generator: Adobe Illustrator 25.0.1, SVG Export Plug-In . SVG Version: 6.00 Build 0)  -->
<svg version="1.1" id="Layer_1" xmlns="http://www.w3.org/2000/svg" xmlns:xlink="http://www.w3.org/1999/xlink" x="0px" y="0px"
	 viewBox="0 0 50 50" style="enable-background:new 0 0 50 50;" xml:space="preserve">
<style type="text/css">
	.st0{fill:none;stroke:#000000;stroke-width:4;}
</style>
<g>
	<g>
		<path class="st0" d="M40.2,29.8h7.3v-9.6h-7.3c-0.3-0.9-0.7-1.8-1.1-2.6l5.2-5.2l-6.7-6.7l-5.2,5.2c-0.8-0.5-1.8-0.8-2.6-1.1V2.5
			h-9.6v7.3c-0.8,0.3-1.8,0.7-2.5,1.1l-5.2-5.2l-6.7,6.7l5.2,5.2c-0.6,0.9-0.9,1.9-1.2,2.7H2.5v9.5h7.3c0.3,0.9,0.7,1.8,1.1,2.6
			l-5.2,5.2l6.7,6.7l5.2-5.2c0.8,0.5,1.7,0.8,2.6,1.1v7.4h9.5v-7.3c0.9-0.3,1.8-0.7,2.6-1.1l5.2,5.2l6.7-6.7l-5.1-5.2
			C39.5,31.6,39.9,30.6,40.2,29.8z M25,30.9c-3.3,0-5.9-2.6-5.9-5.9s2.6-5.9,5.9-5.9s5.9,2.6,5.9,5.9S28.3,30.9,25,30.9z"/>
	</g>
</g>
</svg>
