<?xml version="1.0" encoding="utf-8"?>
<!-- Generator: Adobe Illustrator 25.0.1, SVG Export Plug-In . SVG Version: 6.00 Build 0)  -->
<svg version="1.1" id="Layer_1" xmlns="http://www.w3.org/2000/svg" xmlns:xlink="http://www.w3.org/1999/xlink" x="0px" y="0px"
	 viewBox="0 0 50 50" style="enable-background:new 0 0 50 50;" xml:space="preserve">
<style type="text/css">
	.st0{fill:none;stroke:#000000;stroke-width:4;stroke-linecap:round;stroke-linejoin:round;stroke-miterlimit:10;}
</style>
<g>
	<g>
		<path class="st0" d="M25,1c13.2,0,24,10.8,24,24c0,13.2-10.8,24-24,24C11.8,49,1,38.2,1,25C1,11.8,11.8,1,25,1z"/>
	</g>
	<path d="M22.9,35.4c0-1.3,1.1-2.4,2.4-2.4c1.3,0,2.4,1.1,2.4,2.4c0,1.3-1.1,2.4-2.4,2.4C24,37.8,22.9,36.7,22.9,35.4z"/>
	<path class="st0" d="M19.8,20c0-2.9,2.4-5.4,5.4-5.4l0,0c2.9,0,5.4,2.4,5.4,5.4l0,0c0,2-1.3,3.5-2.8,4.7c-2.6,2.1-2.6,2.8-2.6,4.2
		v-0.3"/>
</g>
</svg>
