<?xml version="1.0" encoding="utf-8"?>
<!-- Generator: Adobe Illustrator 25.0.1, SVG Export Plug-In . SVG Version: 6.00 Build 0)  -->
<svg version="1.1" id="Layer_1" xmlns="http://www.w3.org/2000/svg" xmlns:xlink="http://www.w3.org/1999/xlink" x="0px" y="0px"
	 viewBox="0 0 360.9 69.9" style="enable-background:new 0 0 360.9 69.9;" xml:space="preserve">
<style type="text/css">
	.st0{fill:#FFFFFF;}
</style>
<g>
	<g>
		<polygon class="st0" points="0,69.7 8.9,69.7 8.9,35.1 8.9,26.6 8.9,-0.2 0,-0.2 		"/>
		<polygon class="st0" points="23.4,31.7 54.4,0 43,0 15.2,28.4 15.2,28.4 15.2,28.4 11.8,31.8 15.2,35.2 46.4,69.8 58.7,69.8 		"/>
	</g>
	<g>
		<polygon class="st0" points="130.2,69.8 140,69.8 140,18 130.2,30 		"/>
		<path class="st0" d="M130.1,0l-25.6,29.8L80.1,0H71v69.9h9.8v-55c1,1.2,2.2,2.8,3.7,4.7c1.5,1.9,3.1,3.8,4.8,5.9
			c1.7,2.1,3.4,4.2,5.1,6.4c1.7,2.2,3.3,4.2,4.7,6.1c1.4,1.9,2.6,3.5,3.5,4.9c1,1.4,1.5,2.3,1.8,2.9l5.3-6.3c0,0,0,0,0,0l5.9-7.3
			L140,3V0H130.1z"/>
	</g>
	<g>
		<polygon class="st0" points="201.9,8.6 201.9,0 159.4,0 159.4,8.6 169,8.6 		"/>
		<polygon class="st0" points="169,61.3 169,37.4 199.8,37.4 199.8,28.8 159.4,28.8 159.4,69.8 204,69.8 204,61.2 		"/>
	</g>
	<path class="st0" d="M288.8,0v69.9h-9.6l-42.9-52.4v52.4h-9.6V0h8l44.5,54.3V0H288.8z"/>
	<path class="st0" d="M360.9,0v8.7h-22.5v61.2h-9.7V8.6H307V0H360.9z"/>
</g>
</svg>
