<?xml version="1.0" encoding="utf-8"?>
<!-- Generator: Adobe Illustrator 25.0.1, SVG Export Plug-In . SVG Version: 6.00 Build 0)  -->
<svg version="1.1" id="Layer_1" xmlns="http://www.w3.org/2000/svg" xmlns:xlink="http://www.w3.org/1999/xlink" x="0px" y="0px"
	 viewBox="0 0 50 50" style="enable-background:new 0 0 50 50;" xml:space="preserve">
<style type="text/css">
	.st0{fill:none;stroke:#3B82F6;stroke-width:4.0001;stroke-linecap:round;stroke-linejoin:round;stroke-miterlimit:4.0001;}
	.st1{fill:none;stroke:#3B82F6;stroke-width:4;stroke-linecap:round;stroke-linejoin:round;}
</style>
<g>
	<ellipse class="st0" cx="35.4" cy="11.2" rx="7.2" ry="7.2"/>
	<ellipse class="st0" cx="14.7" cy="11.2" rx="7.2" ry="7.2"/>
	<g>
		<path class="st1" d="M42.3,25.3c-1.9-1.5-4.4-2.4-7.1-2.4c-2.7,0-5,0.9-7.1,2.4c-1.4,1-2.5,2.3-3.2,3.8c0.9,1.6,1.4,3.6,1.4,5.6
			v6.5V46H47v-4.9v-6.5C47,30.8,45.2,27.4,42.3,25.3z"/>
		<path class="st1" d="M21.7,25.3c-1.9-1.5-4.4-2.4-7.1-2.4s-5,0.9-7.1,2.4C4.8,27.4,3,30.8,3,34.7v6.5V46h23.4v-4.9v-7.2
			c-0.1-1.2-0.1-2.6-1.4-4.9C24.2,27.6,23.1,26.3,21.7,25.3z"/>
	</g>
</g>
</svg>
